<svg viewBox="150 372 560 372" xmlns="http://www.w3.org/2000/svg" role="img" aria-label="Isometric factory, conveyor and delivery truck illustration">
  <defs>
    <radialGradient id="floorGlow" cx="0.5" cy="0.55" r="0.6">
      <stop offset="0" stop-color="#2563EB" stop-opacity="0.06"/>
      <stop offset="1" stop-color="#2563EB" stop-opacity="0"/>
    </radialGradient>
  </defs>
  <ellipse cx="430" cy="600" rx="240" ry="120" fill="url(#floorGlow)"/>
<polygon points="430,444 655.16,574 430,704 204.84,574" fill="#EDF1F7"/>
<line x1="430" y1="444" x2="204.84" y2="574" stroke="#E1E8F1" stroke-width="1"/><line x1="430" y1="444" x2="655.16" y2="574" stroke="#E1E8F1" stroke-width="1"/><line x1="452.52" y1="457" x2="227.36" y2="587" stroke="#E1E8F1" stroke-width="1"/><line x1="407.48" y1="457" x2="632.64" y2="587" stroke="#E1E8F1" stroke-width="1"/><line x1="475.03" y1="470" x2="249.87" y2="600" stroke="#E1E8F1" stroke-width="1"/><line x1="384.97" y1="470" x2="610.13" y2="600" stroke="#E1E8F1" stroke-width="1"/><line x1="497.55" y1="483" x2="272.39" y2="613" stroke="#E1E8F1" stroke-width="1"/><line x1="362.45" y1="483" x2="587.61" y2="613" stroke="#E1E8F1" stroke-width="1"/><line x1="520.06" y1="496" x2="294.9" y2="626" stroke="#E1E8F1" stroke-width="1"/><line x1="339.94" y1="496" x2="565.1" y2="626" stroke="#E1E8F1" stroke-width="1"/><line x1="542.58" y1="509" x2="317.42" y2="639" stroke="#E1E8F1" stroke-width="1"/><line x1="317.42" y1="509" x2="542.58" y2="639" stroke="#E1E8F1" stroke-width="1"/><line x1="565.1" y1="522" x2="339.94" y2="652" stroke="#E1E8F1" stroke-width="1"/><line x1="294.9" y1="522" x2="520.06" y2="652" stroke="#E1E8F1" stroke-width="1"/><line x1="587.61" y1="535" x2="362.45" y2="665" stroke="#E1E8F1" stroke-width="1"/><line x1="272.39" y1="535" x2="497.55" y2="665" stroke="#E1E8F1" stroke-width="1"/><line x1="610.13" y1="548" x2="384.97" y2="678" stroke="#E1E8F1" stroke-width="1"/><line x1="249.87" y1="548" x2="475.03" y2="678" stroke="#E1E8F1" stroke-width="1"/><line x1="632.64" y1="561" x2="407.48" y2="691" stroke="#E1E8F1" stroke-width="1"/><line x1="227.36" y1="561" x2="452.52" y2="691" stroke="#E1E8F1" stroke-width="1"/><line x1="655.16" y1="574" x2="430" y2="704" stroke="#E1E8F1" stroke-width="1"/><line x1="204.84" y1="574" x2="430" y2="704" stroke="#E1E8F1" stroke-width="1"/>
<ellipse cx="445.76" cy="632.5" rx="170" ry="54" fill="#0F1B34" opacity="0.07"/>
<polygon points="430,480.4 497.55,519.4 497.55,457 430,418" fill="#D6DDE8"/><polygon points="430,480.4 362.45,519.4 362.45,457 430,418" fill="#E7ECF3"/><polygon points="430,418 497.55,457 430,496 362.45,457" fill="#FFFFFF"/>
<polygon points="430,418 497.55,457 497.55,453.1 430,414.1" fill="#1D4ED8"/><polygon points="430,418 418.74,424.5 418.74,420.6 430,414.1" fill="#2563EB"/><polygon points="430,414.1 497.55,453.1 486.29,459.6 418.74,420.6" fill="#3B82F6"/>
<polygon points="448.01,490.8 479.54,509 479.54,475.2 448.01,457" fill="#C8D1DE"/><polygon points="448.01,490.8 447.56,491.06 447.56,457.26 448.01,457" fill="#DBE2EC"/><polygon points="448.01,457 479.54,475.2 479.08,475.46 447.56,457.26" fill="#F1F4F9"/>
<polygon points="362.45,514.2 382.72,525.9 382.72,450.5 362.45,438.8" fill="#2563EB"/><polygon points="362.45,514.2 342.19,525.9 342.19,450.5 362.45,438.8" fill="#3B82F6"/><polygon points="362.45,438.8 382.72,450.5 362.45,462.2 342.19,450.5" fill="#60A5FA"/>
<polygon points="362.45,438.8 382.72,450.5 382.72,444 362.45,432.3" fill="#D6DDE8"/><polygon points="362.45,438.8 342.19,450.5 342.19,444 362.45,432.3" fill="#E7ECF3"/><polygon points="362.45,432.3 382.72,444 362.45,455.7 342.19,444" fill="#FFFFFF"/>
<polygon points="461.52,453.1 477.28,462.2 477.28,451.8 461.52,442.7" fill="#C8D1DE"/><polygon points="461.52,453.1 445.76,462.2 445.76,451.8 461.52,442.7" fill="#DBE2EC"/><polygon points="461.52,442.7 477.28,451.8 461.52,460.9 445.76,451.8" fill="#F1F4F9"/>
<polygon points="344.44,535 466.03,605.2 466.03,593.5 344.44,523.3" fill="#C8D1DE"/><polygon points="344.44,535 324.17,546.7 324.17,535 344.44,523.3" fill="#DBE2EC"/><polygon points="344.44,523.3 466.03,593.5 445.76,605.2 324.17,535" fill="#F1F4F9"/>
<polygon points="343.31,526.55 460.4,594.15 460.4,593.37 343.31,525.77" fill="#C7D3E6"/><polygon points="343.31,526.55 329.8,534.35 329.8,533.57 343.31,525.77" fill="#C7D3E6"/><polygon points="343.31,525.77 460.4,593.37 446.89,601.17 329.8,533.57" fill="#DCE5F2"/>
<polygon points="350.07,529.67 365.83,538.77 365.83,520.57 350.07,511.47" fill="#D6DDE8"/><polygon points="350.07,529.67 336.56,537.47 336.56,519.27 350.07,511.47" fill="#E7ECF3"/><polygon points="350.07,511.47 365.83,520.57 352.32,528.37 336.56,519.27" fill="#FFFFFF"/>
<polygon points="308.41,555.8 330.93,568.8 330.93,545.4 308.41,532.4" fill="#D6DDE8"/><polygon points="308.41,555.8 285.9,568.8 285.9,545.4 308.41,532.4" fill="#E7ECF3"/><polygon points="308.41,532.4 330.93,545.4 308.41,558.4 285.9,545.4" fill="#FFFFFF"/>
<polygon points="308.41,532.4 330.93,545.4 330.93,522 308.41,509" fill="#1D4ED8"/><polygon points="308.41,532.4 285.9,545.4 285.9,522 308.41,509" fill="#2563EB"/><polygon points="308.41,509 330.93,522 308.41,535 285.9,522" fill="#3B82F6"/>
<polygon points="374.84,543.97 390.6,553.07 390.6,534.87 374.84,525.77" fill="#1D4ED8"/><polygon points="374.84,543.97 361.33,551.77 361.33,533.57 374.84,525.77" fill="#2563EB"/><polygon points="374.84,525.77 390.6,534.87 377.09,542.67 361.33,533.57" fill="#3B82F6"/>
<polygon points="399.6,558.27 415.36,567.37 415.36,549.17 399.6,540.07" fill="#D6DDE8"/><polygon points="399.6,558.27 386.09,566.07 386.09,547.87 399.6,540.07" fill="#E7ECF3"/><polygon points="399.6,540.07 415.36,549.17 401.86,556.97 386.09,547.87" fill="#FFFFFF"/>
<polygon points="329.8,573.35 350.07,585.05 350.07,564.25 329.8,552.55" fill="#D6DDE8"/><polygon points="329.8,573.35 309.54,585.05 309.54,564.25 329.8,552.55" fill="#E7ECF3"/><polygon points="329.8,552.55 350.07,564.25 329.8,575.95 309.54,564.25" fill="#FFFFFF"/>
<polygon points="281.39,574 299.41,584.4 299.41,566.2 281.39,555.8" fill="#C8D1DE"/><polygon points="281.39,574 263.38,584.4 263.38,566.2 281.39,555.8" fill="#DBE2EC"/><polygon points="281.39,555.8 299.41,566.2 281.39,576.6 263.38,566.2" fill="#F1F4F9"/>
<polygon points="424.37,572.57 440.13,581.67 440.13,563.47 424.37,554.37" fill="#D6DDE8"/><polygon points="424.37,572.57 410.86,580.37 410.86,562.17 424.37,554.37" fill="#E7ECF3"/><polygon points="424.37,554.37 440.13,563.47 426.62,571.27 410.86,562.17" fill="#FFFFFF"/>
<polygon points="449.14,586.87 464.9,595.97 464.9,577.77 449.14,568.67" fill="#1D4ED8"/><polygon points="449.14,586.87 435.63,594.67 435.63,576.47 449.14,568.67" fill="#2563EB"/><polygon points="449.14,568.67 464.9,577.77 451.39,585.57 435.63,576.47" fill="#3B82F6"/>
<polygon points="431.13,603.25 499.8,642.9 499.8,637.18 431.13,597.53" fill="#3B434E"/><polygon points="431.13,603.25 404.11,618.85 404.11,613.13 431.13,597.53" fill="#464F5C"/><polygon points="431.13,597.53 499.8,637.18 472.78,652.78 404.11,613.13" fill="#586273"/>
<polygon points="433.38,597.53 479.54,624.18 479.54,616.38 433.38,589.73" fill="#1D4ED8"/><polygon points="433.38,597.53 404.11,614.43 404.11,606.63 433.38,589.73" fill="#2563EB"/><polygon points="433.38,589.73 479.54,616.38 450.26,633.28 404.11,606.63" fill="#3B82F6"/>
<polygon points="433.38,589.73 479.54,616.38 479.54,581.54 433.38,554.89" fill="#D6DDE8"/><polygon points="433.38,589.73 404.11,606.63 404.11,571.79 433.38,554.89" fill="#E7ECF3"/><polygon points="433.38,554.89 479.54,581.54 450.26,598.44 404.11,571.79" fill="#FFFFFF"/>
<polygon points="418.52,597.27 418.85,597.47 418.85,564.97 418.52,564.77" fill="#C4CEDC"/><polygon points="418.52,597.27 418.07,597.53 418.07,565.03 418.52,564.77" fill="#C4CEDC"/><polygon points="418.52,564.77 418.85,564.97 418.4,565.23 418.07,565.03" fill="#C4CEDC"/>
<polygon points="478.86,624.57 500.25,636.92 500.25,621.32 478.86,608.97" fill="#B1BDCE"/><polygon points="478.86,624.57 450.94,640.69 450.94,625.09 478.86,608.97" fill="#C3CEDC"/><polygon points="478.86,608.97 500.25,621.32 472.33,637.44 450.94,625.09" fill="#DCE3EC"/>
<polygon points="479.99,609.1 500.7,621.06 500.7,609.62 479.99,597.66" fill="#2563EB"/><polygon points="479.99,609.1 451.17,625.74 451.17,614.3 479.99,597.66" fill="#3B82F6"/><polygon points="479.99,597.66 500.7,609.62 471.88,626.26 451.17,614.3" fill="#8FBEF9"/>
<polygon points="478.86,597.53 500.25,609.88 500.25,606.76 478.86,594.41" fill="#B1BDCE"/><polygon points="478.86,597.53 450.94,613.65 450.94,610.53 478.86,594.41" fill="#C3CEDC"/><polygon points="478.86,594.41 500.25,606.76 472.33,622.88 450.94,610.53" fill="#DCE3EC"/>
<polygon points="499.8,641.34 502.95,643.16 502.95,637.44 499.8,635.62" fill="#3B434E"/><polygon points="499.8,641.34 472.78,656.94 472.78,651.22 499.8,635.62" fill="#464F5C"/><polygon points="499.8,635.62 502.95,637.44 475.93,653.04 472.78,651.22" fill="#586273"/>
<polygon points="501.15,636.92 502.5,637.7 502.5,633.54 501.15,632.76" fill="#F6D98A"/><polygon points="501.15,636.92 496.65,639.52 496.65,635.36 501.15,632.76" fill="#F6D98A"/><polygon points="501.15,632.76 502.5,633.54 498,636.14 496.65,635.36" fill="#FFF1C4"/>
</svg>
